<svg xmlns="http://www.w3.org/2000/svg" viewBox="-307.613 66.2559 69.99 70">
  <path d="m -294.23183,101.25798 c 0.2423,3.06605 1.20199,6.09051 2.74035,8.75624 0.48689,0.84361 2.3169,2.67831 1.90146,3.67324 -0.49108,1.17634 -2.11052,2.27799 -3.00002,3.16756 l -5.74628,5.74629 c -0.80507,0.80503 -1.68215,2.01886 -2.73632,2.49908 -0.74099,0.33794 -1.45332,-0.0889 -2.18906,-0.21699 -1.14417,-0.19947 -2.35188,0.0279 -3.22215,0.83568 -1.69262,1.57147 -1.31871,4.26265 0.30214,5.71809 0.64115,0.57573 1.57481,0.78397 2.14303,1.42782 1.08053,1.22477 1.22815,2.5248 2.96626,3.15251 3.53635,1.27732 6.51029,-3.06933 3.83064,-5.75448 v -0.27364 c 3.43991,-2.42301 6.3289,-6.05521 9.3035,-9.02987 1.63612,-1.63604 2.74948,-3.52629 5.19901,-2.73632 -0.77903,1.76 -1.09527,3.55366 -1.09453,5.47265 5.7e-4,1.48829 0.31985,2.73003 0.89038,4.10449 0.55683,1.34134 1.39163,2.51659 2.40419,3.55311 6.57946,6.73519 18.46413,2.66627 19.38545,-6.84737 0.20878,-2.15733 -0.31604,-4.27879 -1.06306,-6.28288 l 1.36816,-0.8209 h 0.27364 c 2.28182,3.23927 5.6817,5.95534 8.4826,8.75624 1.02557,1.02558 2.38279,2.05252 3.161,3.28359 0.58749,0.92925 0.0145,1.76164 -0.0986,2.73632 -0.14995,1.29292 0.29059,2.57489 1.34435,3.37854 1.62976,1.24284 3.94333,0.72294 5.24992,-0.73223 0.57572,-0.64112 0.78395,-1.57476 1.42781,-2.14283 1.37254,-1.21109 2.87916,-1.41878 3.31013,-3.51344 0.70625,-3.43435 -3.45159,-5.73916 -5.9121,-3.28359 h -0.27363 c -2.28182,-3.23925 -5.68171,-5.95533 -8.4826,-8.75623 -0.86715,-0.86714 -2.90243,-2.25664 -3.04225,-3.55722 -0.10208,-0.94869 1.00752,-1.9967 1.48308,-2.73633 1.24093,-1.93075 2.15322,-4.06316 2.68543,-6.29354 0.26023,-1.09097 0.24107,-2.79324 1.37665,-3.36486 2.69966,-1.358582 7.13496,-0.66437 9.05996,-3.504684 1.04611,-1.543556 -0.39129,-2.831271 -1.71211,-3.491546 -2.65177,-1.325919 -6.07601,-2.09885 -9.02987,-2.226005 l -1.73346,-5.199012 2.55436,-3.00996 6.84081,-7.114436 h 0.27363 c 2.36637,2.361526 6.38193,0.338701 5.95752,-3.00996 -0.28594,-2.257661 -1.92172,-2.522014 -3.35555,-3.786935 -0.64386,-0.568221 -0.85209,-1.501888 -1.42781,-2.14303 -1.30659,-1.455132 -3.62016,-1.975128 -5.24992,-0.732225 -1.05376,0.803688 -1.4943,2.085829 -1.34435,3.378601 0.11301,0.974621 0.686,1.807153 0.0986,2.736321 -2.1866,3.458906 -6.26262,5.663813 -8.63365,9.029869 h -0.27363 c -1.44806,-1.789881 -3.64342,-2.955013 -5.74628,-3.827672 -5.29151,-2.195929 -11.31361,-2.283764 -16.69158,-0.36106 -1.64382,0.587675 -3.2186,1.395086 -4.65174,2.393431 -0.66746,0.464988 -1.56863,1.442701 -2.46269,1.314967 -1.14161,-0.163115 -2.24546,-1.765113 -3.00996,-2.529615 -2.19199,-2.19199 -4.30422,-4.780358 -6.84081,-6.567178 1.82529,-2.596497 0.827,-6.717572 -3.00996,-6.231259 -2.4326,0.308305 -2.47255,2.20804 -3.97022,3.539067 -1.3316,1.183437 -2.87939,1.495404 -3.30912,3.513089 -0.47425,2.226708 1.17563,4.338081 3.44848,4.355321 0.97422,0.0072 2.08449,-0.709141 3.00996,-0.287373 0.95364,0.434644 1.73535,1.498309 2.46269,2.225591 l 4.37812,4.378125 c 0.78207,0.782063 2.04615,1.68007 2.45679,2.736321 0.32217,0.828695 -0.33428,1.723145 -0.64671,2.462692 -0.31711,0.750571 -0.54707,1.729215 -1.16675,2.298646 -0.68694,0.631215 -1.95742,0.645642 -2.83238,0.82068 -1.9501,0.390091 -3.94762,0.726361 -5.74628,1.603291 -0.55007,0.268159 -1.13287,0.537961 -1.61203,0.924328 -2.32751,1.877675 0.0437,3.693774 1.88565,4.534373 0.96294,0.439173 1.97982,0.692567 3.00996,0.921587 1.54233,0.34259 3.08417,0.73443 4.65175,0.93692 m 3.83086,-15.323414 c -2.63123,-1.227049 -4.80132,-4.254053 -6.84081,-6.293549 -1.01731,-1.017313 -2.40751,-3.058144 -3.83086,-3.467688 -1.60343,-0.461398 -2.83664,1.422017 -4.59327,0.181554 -1.5477,-1.092912 -1.33926,-3.370441 -0.0219,-4.541312 0.66573,-0.591728 1.65619,-0.722389 2.26527,-1.355713 1.2673,-1.317697 1.30528,-3.407528 3.71812,-3.348403 1.74795,0.04282 2.98467,1.844281 2.57608,3.501692 -0.20857,0.845935 -0.94696,1.57273 -0.48795,2.462692 0.48544,0.941216 1.55044,1.723144 2.28998,2.462691 l 4.37812,4.378126 c 0.74023,0.740281 2.36632,1.865544 2.41689,3.00995 0.0461,1.043447 -1.28815,2.225425 -1.86962,3.00996 m 33.38314,-3.00996 c 1.78683,-2.536596 4.37511,-4.648818 6.56718,-6.840807 0.89369,-0.893571 2.23968,-1.861987 2.80555,-3.00996 0.39486,-0.801031 -0.13244,-1.439329 -0.37734,-2.189053 -0.38253,-1.171016 -0.14009,-2.536709 0.91394,-3.281055 1.36542,-0.96431 3.19,-0.434809 4.14116,0.833349 0.46106,0.614584 0.59514,1.477077 1.15253,2.013176 1.36215,1.310044 3.93921,1.618753 3.2814,4.26516 -0.36803,1.480376 -1.97453,2.388953 -3.43464,2.029041 -0.84607,-0.208568 -1.57283,-0.946956 -2.46269,-0.487947 -0.94129,0.485434 -1.72306,1.550433 -2.46269,2.28998 l -4.37811,4.378116 c -0.70188,0.701736 -1.8856,2.40611 -2.98533,2.40611 -0.987,0 -2.12339,-1.763241 -2.76096,-2.40611 m 3.83086,7.114446 c -5.01158,-1.630139 -10.10196,-1.971198 -15.32342,-2.199839 -7.91727,-0.346696 -15.56536,0.143164 -23.25875,2.199839 5.39144,-12.946287 22.5298,-16.505149 33.10842,-7.682616 2.33464,1.946946 4.61864,4.720001 5.47375,7.682616 m 2.73632,10.124398 c 0,-1.097538 0.22985,-2.533568 -0.32261,-3.52849 -0.49391,-0.889579 -1.50225,-1.264725 -2.41371,-1.573113 -2.01449,-0.681622 -4.18083,-1.006971 -6.29355,-1.191938 -8.70123,-0.762041 -17.29439,-0.587385 -25.99507,0.0072 -2.10481,0.143661 -4.29228,0.507866 -6.29355,1.185102 -0.91133,0.308388 -1.91978,0.683535 -2.41371,1.573113 -0.55238,0.994922 -0.32261,2.430952 -0.32261,3.528486 -2.39614,-0.190715 -5.21951,-0.832385 -7.38786,-1.892442 -0.81591,-0.398674 -2.14399,-1.298377 -1.42286,-2.340924 0.82021,-1.18565 2.8697,-1.537816 4.15897,-1.901741 4.00195,-1.129007 8.18393,-1.627781 12.31345,-2.027397 11.28844,-1.092427 22.96761,-0.953968 34.20405,0.659366 2.77683,0.398684 5.55502,0.92018 8.20897,1.851261 0.8915,0.312763 2.24325,0.725679 2.71279,1.633314 0.54345,1.05048 -0.86056,1.77834 -1.61853,2.130227 -2.17784,1.011077 -4.7426,1.582142 -7.11417,1.888336 m -28.45776,-5.941929 c 2.23967,-0.264052 4.58745,-0.07798 6.84081,-0.07798 4.57102,0 9.15108,0.100938 13.68161,0.746745 1.80625,0.257485 5.4182,0.334099 6.67581,1.830599 0.5355,0.637564 0.44055,1.5712 0.43837,2.34804 -0.005,1.938685 -0.3508,3.879835 -0.86223,5.746285 -2.41507,8.81232 -10.06283,14.20644 -18.83904,15.24543 -9.40528,1.11313 -18.71227,-5.65298 -21.52279,-14.42453 -0.69843,-2.17976 -2.14838,-6.837536 -0.6446,-8.915225 0.74672,-1.031864 2.68023,-1.158285 3.83402,-1.36679 3.46638,-0.626354 6.92009,-0.722121 10.39804,-1.132575 m -3.55722,2.80009 c -1.1387,0.08511 -2.29141,0.366386 -3.28337,0.940471 -6.67316,3.861769 -3.1846,14.242569 4.3779,13.668209 7.64283,-0.58037 9.05175,-12.044471 1.64179,-14.261995 -0.86304,-0.258034 -1.83615,-0.414002 -2.73632,-0.346685 m 19.15426,0.02193 c -1.03406,0.04985 -2.08343,0.297167 -3.00995,0.760696 -6.81153,3.407554 -4.02048,14.094004 3.55721,13.840064 7.58072,-0.25393 9.80152,-11.0066 2.73632,-14.07128 -0.98452,-0.427136 -2.21532,-0.580921 -3.28358,-0.52948 m -10.12302,13.44849 c -2.9692,1.11369 -1.40265,5.90417 1.63631,4.74945 2.93197,-1.11424 1.34737,-5.8686 -1.63631,-4.74945 m -14.77752,3.62673 2.73632,2.46269 c -0.71519,1.53371 -2.09819,2.64548 -3.28359,3.83086 l -5.74628,5.74628 c -0.95804,0.95798 -2.15365,1.8949 -2.9291,3.00995 -0.71779,1.03214 0.0517,1.70419 0.30617,2.73633 0.28931,1.1736 -0.21981,2.41179 -1.22292,3.08055 -1.44111,0.96045 -3.28027,0.15734 -4.16127,-1.17033 -0.36434,-0.5489 -0.4467,-1.27513 -0.91001,-1.75699 -1.41525,-1.4716 -4.33365,-1.93376 -3.11995,-4.79322 1.37708,-3.24418 4.17062,0.0258 6.01717,-1.20918 1.12216,-0.7503 2.05884,-1.95593 3.00995,-2.90707 2.97461,-2.97465 5.86359,-6.60685 9.30351,-9.02987 m 28.45776,3.00996 c 0.63264,-0.78478 1.90449,-2.40797 3.00995,-2.40605 1.26939,0.002 2.73906,2.13515 3.55723,2.95331 2.6898,2.68981 5.361,6.23088 8.4826,8.40161 1.03215,0.71801 1.70419,-0.0517 2.73632,-0.30592 1.2204,-0.301 2.35078,0.24791 3.08056,1.22286 0.22848,0.30537 0.35381,0.7057 0.40306,1.07948 0.33575,2.54506 -1.98492,2.69802 -3.33038,3.99175 -0.63319,0.6091 -0.76398,1.59966 -1.35558,2.26541 -1.24502,1.40044 -3.71017,1.50853 -4.69252,-0.26598 -0.92679,-1.6738 0.76098,-2.86083 0.33274,-4.34938 -0.50951,-1.7704 -3.28578,-3.64889 -4.56227,-4.92539 l -7.66171,-7.6617 m -18.33336,3.00995 -0.54727,2.73633 c -1.74709,-0.75386 -3.6965,-1.95948 -3.28359,-4.10449 l 3.83086,1.36816 m 15.04977,-1.36816 c 0.301,2.15786 -1.68038,3.54819 -3.55722,4.10449 l -0.54726,-2.73633 4.10448,-1.36816 m -10.1244,2.18906 v 3.00996 l -4.92537,-0.8209 1.09452,-2.73632 3.83085,0.54726 m -9.30349,-0.27363 3.55722,2.73632 -0.8209,2.46269 c -1.685,-0.80283 -3.42722,-3.26772 -2.73632,-5.19901 m 14.50251,0 0.54726,2.73632 -4.65174,0.54727 v -3.00996 l 4.10448,-0.27363 m 5.74628,0 c -0.55629,2.25664 -1.06662,4.29739 -3.28359,5.47265 l -0.82089,-2.73633 3.55721,-2.73632 h 0.54727 m -10.9453,7.6617 -6.0199,-1.64179 0.8209,-2.73632 3.28331,0.50184 1.63441,0.48405 0.28128,3.39222 m 6.01992,-4.37811 c 0.3185,0.71964 0.93062,1.8202 0.63017,2.62851 -0.58064,1.56326 -4.18958,1.73839 -5.55555,1.7496 l 0.28129,-3.35418 4.64409,-1.02393 m -15.32341,0.27362 c 5.00391,6.56691 14.97124,6.56691 19.97515,0 h 0.27364 c -0.55,6.73329 -7.57962,11.39762 -13.95525,8.90292 -2.59814,-1.01655 -4.66496,-3.0647 -5.78027,-5.61933 -0.45223,-1.03569 -0.93711,-2.19507 -0.51327,-3.28359 z" fill="#000"/>
</svg>