<svg xmlns="http://www.w3.org/2000/svg" viewBox="-410.365 69.4559 91 70">
  <path d="m -396.47384,105.3528 c -2.10377,0 -4.42735,0.39271 -6.39129,1.18344 -7.77375,3.13137 -10.22138,13.81619 -3.90579,19.76576 4.39647,4.14155 11.44786,3.66718 16.33329,0.71015 0,8.32252 10.67966,14.22416 18.10863,11.95419 5.4816,-1.67487 9.00214,-6.72861 10.65214,-11.95419 1.71642,1.4004 3.49711,2.18227 5.68115,2.48549 5.92579,0.82306 11.66729,-1.87264 13.72954,-7.81157 2.45745,-7.07763 -2.706,-15.97821 -10.53389,-15.97821 1.29459,-1.29459 2.53804,-2.69001 3.90577,-3.90579 3.84579,-3.418613 9.41401,-2.106273 12.72328,1.4203 1.75334,1.86839 3.12072,4.76221 5.74044,5.5629 2.31684,0.708 2.44786,-1.27933 3.96508,-2.18973 0.73003,-0.43816 1.66884,0.0401 2.42621,-0.35506 1.52502,-0.79572 1.77535,-2.92295 1.77535,-4.43841 2.69322,-0.071 3.53331,-3.111833 2.4262,-5.326053 -1.43981,-2.87993 -5.35377,-5.73682 -8.46241,-6.39129 0.84187,-4.57031 2.63924,-10.91802 -3.55072,-12.72339 -1.19623,-0.34885 -2.05764,-0.53839 -3.19564,-0.0592 -0.13528,-5.14252 -8.23446,-4.0689 -11.36228,-2.72222 -8.06154,3.4709 -6.57876,13.89696 -1.42029,19.05551 l -5.32607,2.13043 c 0.65795,-2.27232 0.2386,-4.82035 -0.23683,-7.10143 -1.90496,-9.14358 -7.61487,-16.71154 -17.16167,-18.70044 -12.33905,-2.5706 -25.17495,4.83054 -28.28736,17.28016 -1.63563,6.54258 0.44774,12.03052 2.36716,18.108643 m 66.39834,-14.913003 c 3.11539,0.98384 7.10392,3.0583 8.75855,6.03622 0.47295,0.85146 1.13303,4.357433 -0.5919,4.438393 -0.94876,0.0444 -1.89182,-1.359223 -2.48551,-1.952903 -1.61203,-1.61202 -4.6983,-5.05859 -7.10142,-4.61592 2.56504,2.36264 5.81145,3.87205 7.51579,7.101423 0.67641,1.28216 0.52373,4.5364 -1.77535,3.84649 -1.01835,-0.30536 -2.01006,-2.32572 -2.66304,-3.13634 -1.31731,-1.63546 -3.05753,-3.576643 -4.85276,-4.615933 -0.43461,2.3591 3.1786,4.325483 4.55663,6.036213 0.6899,0.85607 1.47568,2.1148 0.6512,3.13635 -1.48029,1.83429 -3.49993,0.24463 -4.55699,-1.00592 -4.24772,-5.02674 -9.76198,-9.096933 -16.27399,-5.20783 -2.54337,1.519 -4.47709,5.20783 -7.4565,5.20783 0.53617,-1.45579 1.3759,-2.76991 1.89361,-4.26086 0.45307,-1.30453 0.65048,-3.130303 1.42028,-4.260863 1.394,-2.04627 5.36512,-3.01181 7.69334,-3.19564 -4.33685,-2.73912 -6.991,-8.35724 -5.20784,-13.4927 1.56764,-4.51418 9.14522,-7.88299 13.37447,-4.97101 0.73358,0.50509 1.16428,2.03794 0.29578,2.66303 -1.03717,0.74672 -3.31743,-0.014 -4.55664,0.29589 -4.51082,1.12771 -5.52846,6.44578 -2.72233,9.82365 2.30904,2.77942 6.87348,2.69457 9.4687,0.35507 0.7048,-0.6354 1.60562,-1.49141 1.71606,-2.4855 0.24286,-2.18475 -1.72495,-3.7738 -2.30797,-5.68113 -0.24429,-0.80013 -0.31282,-1.99643 0.59191,-2.36716 1.18629,-0.48621 2.58314,0.2963 3.55071,0.88768 3.96365,2.42218 3.1992,8.04265 1.06521,11.42147 m -27.69557,-9.23186 h -36.57235 l 3.19565,-4.20166 6.74635,-0.0592 h 14.913 l 8.52171,0.0592 3.19564,4.20166 m 3.19565,6.74637 0.35506,4.26085 h -43.67376 l 0.35506,-4.26085 h 42.96364 m -34.08686,5.68113 v 0.35507 c -7.74084,4.48171 1.05667,16.562313 7.81158,10.297073 0.83008,-0.76979 1.53476,-1.76364 1.8937,-2.84057 0.3501,-1.05031 0.38795,-2.472363 0.11837,-3.550713 -0.47931,-1.91704 -2.14965,-3.01349 -3.07731,-4.61592 l 27.69557,0.35506 c 0,6.702693 -3.5113,14.132913 -9.58693,17.339213 -4.57509,2.41484 -9.87311,3.03479 -14.913,2.54478 -4.12822,-0.40122 -8.3011,-1.05952 -11.71735,-3.66894 -5.24273,-4.00485 -7.4565,-10.189143 -7.4565,-16.570113 l 9.23186,0.35506 m 17.75357,7.456503 5.32607,-2.722333 4.97099,2.012193 c -1.07408,-2.505743 -4.5726,-3.718673 -7.10141,-2.840573 -1.58754,0.55107 -3.76839,1.73665 -3.19565,3.550713 m -5.68115,5.79938 c -1.80212,0.45058 -1.16907,3.50847 0.71015,3.01811 1.99443,-0.52018 1.23422,-3.50421 -0.71015,-3.01811 m 21.65936,-0.11823 v 0.35507 c -6.63131,2.61759 -7.94259,13.12202 -1.06521,16.27399 3.51236,1.60989 8.87749,-0.63132 8.69925,-4.9117 -0.0781,-1.87691 -1.01587,-3.80992 -2.66304,-4.79347 -1.82791,-1.09184 -4.37199,-0.47153 -4.971,1.59783 1.31021,-0.48255 2.80684,-1.10392 4.26086,-0.59191 2.02746,0.71404 2.59343,3.77832 1.77535,5.5629 -1.48207,3.23328 -5.9375,2.77773 -8.16663,0.71014 -2.36727,-2.19575 -2.81466,-6.40371 -1.36099,-9.23186 2.58669,-5.03383 9.81701,-4.9188 13.37411,-1.06521 2.27566,2.46527 2.82849,6.73465 2.07148,9.94201 -1.37909,5.84056 -8.34097,8.49224 -13.72954,7.21966 -1.31519,-0.31034 -3.23292,-0.61072 -4.20156,-1.65677 -0.94059,-1.01585 -0.29009,-3.21942 -0.41436,-4.49768 -0.19069,-1.96142 -0.53439,-4.16712 -1.18346,-6.03622 -0.43922,-1.2644 -1.19375,-2.17765 -1.30205,-3.55071 3.13316,-1.73169 5.09421,-5.32607 8.87679,-5.32607 m -40.47813,7.4565 c -1.28423,-2.1599 -4.23448,-1.83395 -5.97703,-0.23683 -2.60746,2.39033 -2.40525,6.63735 0.65096,8.46277 0.9345,0.55816 1.76218,0.66575 2.84056,0.65084 1.3012,-0.0181 2.42055,-0.37815 3.55072,-1.00591 1.32637,-0.73713 2.44235,-1.59889 3.19564,-2.89988 h 0.35507 v 6.74637 c -4.6776,1.72316 -9.05731,3.4527 -13.84778,0.5919 -7.03585,-4.20191 -5.56415,-14.98792 1.42028,-18.28617 2.85999,-1.3507 6.24568,-1.55913 8.87679,0.41401 3.3867,2.54018 4.18572,8.89489 0.71014,11.83594 -1.79617,1.51971 -4.70451,2.09031 -6.74636,0.71015 -2.2595,-1.52752 -1.8299,-5.41839 0.35507,-6.86496 1.57095,-1.03965 2.99492,0.22299 4.61594,-0.11823 m 63.2027,-2.48549 c 0,5.30868 -1.01409,11.227 -7.10143,12.66432 -1.02332,0.24146 -2.14996,0.11823 -3.19565,0.11823 v 0.35508 c 1.23246,0 2.72589,0.11287 3.90579,0.47331 5.216,1.59391 6.39129,8.04841 6.39129,12.66433 h 0.35507 c 0,-6.66931 2.72731,-13.13764 10.29707,-13.13764 v -0.35508 c -4.70577,0 -8.668,-2.20641 -9.82376,-7.10142 -0.38206,-1.61841 0.0596,-4.46041 -0.82838,-5.68115 m -50.06507,2.84058 c -1.12493,2.24973 -2.58566,4.12451 -2.84057,6.74635 -0.30219,3.10831 0.48414,6.96118 2.84057,9.17256 4.88827,4.58753 12.85004,1.80199 14.43969,-4.55662 0.51308,-2.05231 0.57877,-3.97254 0.17753,-6.03622 -0.43674,-2.24477 -1.52325,-3.63629 -2.89986,-5.32607 l 5.32607,-1.77536 c 3.68423,7.36845 4.11137,17.02461 -3.19564,22.60633 -5.10947,3.90295 -12.88298,3.44668 -17.33931,-1.30205 -2.73759,-2.91726 -3.96498,-6.73073 -3.96498,-10.65214 0,-3.97822 1.14291,-7.00804 2.4855,-10.65214 l 4.971,1.77536 m 5.32607,0.71015 v 16.33328 c -3.12,-0.90331 -5.57415,-2.38218 -6.62801,-5.68114 -1.05091,-3.28975 -0.45726,-9.5383 3.43237,-10.88898 1.03911,-0.36076 2.17509,0.049 3.19564,0.23684 m 1.42029,16.33328 v -7.10144 -6.74635 c 0,-0.63095 -0.23371,-1.8304 0.17753,-2.36726 1.41106,-1.8421 4.54918,0.45307 5.38537,1.65711 3.69808,5.32573 0.67961,13.40785 -5.5629,14.55794 m 43.67378,-13.49271 c 0.56527,2.68434 2.96307,5.67581 5.68115,6.39129 v 0.35506 c -2.74045,1.37023 -5.0477,4.09327 -5.68115,7.10144 h -0.35507 l -5.32607,-7.4565 c 3.32241,-1.31164 3.66895,-4.06132 5.68114,-6.39129 z" fill="#000"/>
</svg>