<svg xmlns="http://www.w3.org/2000/svg" viewBox="-412.519 159.368 70.02 70">
  <path d="m -384.27442,162.69511 c -1.24755,-0.88746 -2.55397,-1.55698 -4.11064,-1.63326 -2.35063,-0.11517 -5.03553,0.0595 -6.70601,1.95805 -2.19564,2.49549 -1.26786,6.73957 1.50027,8.4431 1.40918,0.86723 2.82708,0.74525 4.38361,0.54956 l -0.28165,4.87525 -1.91069,1.52351 -1.9183,0.70519 -2.19234,-1.60934 -3.28851,-2.77616 -13.42809,-10.66568 c -0.50025,1.69239 -0.24925,3.47998 -0.0425,5.2068 0.68839,5.74972 3.01794,10.47096 7.16761,14.52024 1.10288,1.07622 2.29321,2.04956 3.56255,2.92335 0.7594,0.52265 1.76505,1.00442 2.29025,1.78983 0.87697,1.31184 -0.15655,4.39317 -0.0871,5.9785 0.10367,2.36801 0.71662,4.67736 1.63749,6.85108 0.3716,0.87721 1.3986,1.99092 1.45141,2.93636 0.0757,1.35569 -2.73113,3.05585 -3.64778,3.84044 -2.61651,2.23947 -5.27308,4.42743 -7.94725,6.59757 -0.73785,0.59879 -2.67841,1.74647 -2.68396,2.81881 -0.007,1.35623 2.34594,3.19259 3.23205,4.08597 h 0.27404 l 9.5915,-8.10783 5.7549,-5.04622 h 0.27403 c 0.72773,0.79418 2.26993,1.4253 2.58799,2.49187 0.34616,1.16112 -0.80978,2.94323 -1.0799,4.08515 -0.56538,2.38994 -0.67707,5.06322 0.16093,7.39915 2.86963,7.99931 16.14157,9.53066 20.67423,2.19235 2.11589,-3.42581 2.16028,-7.69895 1.25621,-11.50979 -0.32392,-1.36528 -1.09836,-3.25015 0.79254,-3.8292 1.30197,-0.39846 2.66561,1.19044 3.56036,1.9331 2.99254,2.48365 6.0114,4.94126 9.0434,7.37667 0.84159,0.67607 2.61656,2.71002 3.81194,2.37294 1.47434,-0.41545 2.94075,-3.01611 1.89034,-4.26629 -0.82459,-0.98162 -1.9953,-1.73222 -2.96184,-2.56833 l -6.57703,-5.67762 c -1.03204,-0.89063 -3.02543,-2.0249 -3.55653,-3.31317 -0.38092,-0.92462 0.58892,-1.95776 1.00465,-2.71577 1.01423,-1.84951 1.86979,-3.93333 2.19672,-6.02893 0.52342,-3.35565 0.14114,-6.43068 -1.1392,-9.5915 -0.53191,-1.31296 -1.31046,-2.50751 -1.79415,-3.83659 0.59084,-0.26196 1.26717,-0.80451 1.91885,-0.86379 0.83638,-0.0761 1.65193,0.61405 2.46583,0.77053 2.17343,0.41789 4.42634,0.006 6.30299,-1.13021 2.8103,-1.70172 6.20623,-4.37607 7.84665,-7.27186 0.75088,-1.3254 0.88434,-3.94169 -1.27101,-3.91971 -1.52367,0.0155 -3.05502,1.33363 -4.10926,2.30105 -1.85089,1.69847 -3.60614,3.31192 -5.7549,4.63313 1.71824,-3.68439 6.55976,-4.90497 8.30569,-8.49532 0.68099,-1.40047 -0.0803,-3.05799 -1.72894,-3.19717 -0.98491,-0.0832 -1.96434,0.53238 -2.74016,1.06531 -2.57353,1.76774 -4.75436,5.07664 -7.94723,5.69442 1.69851,-3.20674 7.13936,-4.66087 7.76554,-8.49511 0.3686,-2.25645 -2.15342,-2.42066 -3.6549,-1.77239 -3.05037,1.31688 -6.85162,4.58508 -8.7891,7.25302 -1.13152,1.55824 -1.53627,3.29764 -1.29978,5.20682 0.0946,0.76315 0.63441,1.67758 0.38585,2.44163 -0.29241,0.89974 -1.4675,1.52595 -2.08081,2.21709 h -0.27404 c -0.93805,-1.13486 -2.51077,-1.62268 -3.35921,-2.79795 -0.98026,-1.35823 -0.48725,-3.89475 -0.20334,-5.42333 2.1252,0.38868 4.37619,-0.0434 5.88314,-1.72671 2.13288,-2.38297 1.4812,-6.74235 -1.49956,-8.11832 -2.64368,-1.22034 -4.91577,0.36083 -7.39805,1.07567 -2.04409,-4.37082 -9.50873,-3.84202 -11.50979,0.27404 m 11.23575,1.64426 c 1.98626,-1.93836 5.71159,-3.45434 8.18483,-1.26216 2.57573,2.28332 0.71279,6.18339 -2.15589,6.97329 -1.33076,0.36642 -2.49516,0.14963 -3.83661,0.0437 l -0.27403,6.02894 c -3.91881,-0.67436 -7.45506,-1.54711 -11.5098,-0.88957 -1.30553,0.2117 -2.55378,0.5377 -3.83637,0.8458 -0.44535,0.10697 -1.05822,0.30057 -1.47805,0.0114 -0.43351,-0.29858 -0.35927,-0.889 -0.31888,-1.33911 0.1154,-1.28582 0.15245,-2.54263 0.15245,-3.83534 -1.73707,0.13707 -3.34505,0.44121 -4.92855,-0.54957 -2.49785,-1.56286 -2.92482,-5.36013 -0.52356,-7.21984 2.94015,-2.277 7.15647,-0.57527 9.8368,1.19238 0.39598,-1.13291 0.89885,-2.12226 1.9224,-2.82183 2.8832,-1.97011 8.05,-0.86522 8.76526,2.82183 m 13.42809,15.62044 h -0.27404 c -0.5385,0.66712 -1.3039,1.62787 -2.19235,1.82759 -0.93475,0.21019 -2.36663,-1.07869 -2.09752,-2.05511 0.25486,-0.92481 1.63412,-1.72548 2.37156,-2.23887 -1.17016,-1.88464 -1.68042,-4.81605 -0.52341,-6.85106 1.15234,-2.0271 3.38853,-3.6152 5.18214,-5.04209 0.97477,-0.77554 3.92484,-3.68292 5.31424,-2.61927 1.03725,0.7942 -0.36667,2.25578 -0.95532,2.79603 -1.84102,1.68991 -4.03171,2.98624 -5.69898,4.86555 -0.61222,0.68967 -1.36721,1.74304 -0.4552,2.53573 1.09946,0.95552 2.53901,-0.20194 3.43952,-0.86019 1.90076,-1.38937 3.63681,-2.97336 5.48085,-4.43291 0.73307,-0.58018 1.70399,-1.31003 2.6996,-0.90988 1.5582,0.62633 0.22362,2.29686 -0.51932,2.9504 -1.96351,1.72708 -4.21888,3.15919 -5.9881,5.10237 -0.6018,0.66094 -1.75196,2.00635 -0.75198,2.83621 0.78486,0.65132 1.93721,-0.0661 2.6415,-0.49925 1.95447,-1.20186 3.44746,-2.9991 5.20682,-4.44007 0.64262,-0.52627 1.98241,-1.56149 2.84785,-0.90059 0.5204,0.3975 0.31432,1.13616 0.0891,1.63264 -0.58125,1.28044 -1.68811,2.31016 -2.66314,3.28829 -3.13588,3.14635 -9.25909,7.71469 -13.15378,3.01448 m -51.24598,-13.42809 16.99065,13.97617 v 0.27404 l -4.11064,6.30299 c -5.96752,-2.18482 -10.3626,-7.82664 -12.23761,-13.70214 -0.61707,-1.93364 -1.46007,-4.90243 -0.6424,-6.85106 m 28.77448,9.67079 c 10.40869,-1.35264 22.10072,5.28856 22.68827,16.6373 0.0924,1.78566 -0.33707,3.76809 -0.80651,5.48085 -0.57796,2.10876 -1.52833,4.03391 -2.88211,5.7549 -1.45133,1.84486 -3.26138,3.51349 -5.29752,4.69271 -2.42829,1.40638 -5.16515,2.28633 -7.94723,2.62806 -10.50134,1.28965 -21.27549,-5.92671 -21.89782,-16.91227 -0.0946,-1.66892 0.24036,-3.59159 0.6536,-5.20681 0.53114,-2.07614 1.43254,-4.00392 2.66662,-5.75489 1.41055,-2.00137 3.33038,-3.56152 5.42355,-4.80866 2.21215,-1.318 4.84562,-2.17934 7.39915,-2.51119 m 1.64426,16.91134 v -0.27404 c -3.15697,-1.84266 -7.04383,-2.90294 -9.5012,-5.76558 -1.30888,-1.52485 -1.76932,-3.94273 0.20953,-5.1716 1.75182,-1.08786 5.30599,0.76099 3.85669,2.92714 -0.45595,0.68146 -1.78999,1.06906 -2.08218,0.0215 -0.15157,-0.54343 0.15196,-1.3033 0.11801,-1.87705 -1.38712,0.80976 -1.90364,2.76961 0.012,3.38261 3.97609,1.27227 4.31097,-5.1984 0.53581,-5.79043 -3.28775,-0.51559 -6.21844,2.88486 -4.38192,5.97037 1.97289,3.31454 7.43525,6.24543 11.23321,6.57702 m -7.6732,0.41627 c -4.0164,0.87611 -5.97263,5.77216 -3.60273,9.16454 1.48868,2.13096 4.42464,2.91882 6.89124,2.33128 3.85496,-0.9186 5.6535,-5.96591 3.3847,-9.17057 -1.51573,-2.14109 -4.17192,-2.87114 -6.67321,-2.32525 m 15.62043,0.003 c -3.69355,0.85391 -5.69789,5.33204 -3.77412,8.62439 1.43599,2.45707 4.32522,3.50391 7.06263,2.9076 3.91416,-0.85283 5.68283,-5.94838 3.52611,-9.19989 -1.44037,-2.17124 -4.36056,-2.89937 -6.81462,-2.3321 m -6.81024,11.64763 c -1.50476,0.86488 -0.25376,3.21561 1.2669,2.3965 1.61713,-0.87118 0.41655,-3.36387 -1.2669,-2.3965 m -15.66126,0.26528 2.46639,2.46638 -14.52427,12.33192 h -0.27404 l -2.19233,-3.01447 14.52425,-11.78383 m 44.39491,14.7983 -9.0434,-7.10292 -6.02894,-5.229 2.74042,-1.82348 4.11064,3.11942 6.85107,5.86479 2.499,2.7059 -1.12879,2.46529 m -19.18298,-9.31746 c 0.88954,2.38007 -0.39873,3.41924 -2.74043,3.8366 l -0.27404,-3.01447 3.01447,-0.82213 m -14.52426,1.09618 -0.54809,3.01446 -3.56255,-1.3702 1.09616,-2.46639 3.01448,0.82213 m 5.2068,0.54808 -0.27404,3.56256 c -1.09315,-0.20307 -3.08325,-0.0499 -3.94128,-0.81885 -0.66428,-0.59549 -0.30583,-2.48473 0.49739,-2.84154 0.91311,-0.40586 2.69823,0.0973 3.71793,0.0978 m 5.20682,-0.27404 0.10468,2.65437 -4.21532,1.18223 v -3.56256 l 4.11064,-0.27404 m 5.20681,2.19234 c 0.0153,0.74594 0.27952,1.72099 0.0623,2.43761 -0.37571,1.23757 -2.23674,1.74839 -3.35072,1.94707 l -0.27404,-3.01447 3.56255,-1.37021 m -16.7166,4.38468 -3.8366,-1.37022 c 0.11151,-0.58891 0.12756,-1.55189 0.55167,-2.01503 0.62948,-0.68757 2.81812,0.18169 3.26654,0.8372 0.43027,0.62893 0.0491,1.83089 0.0184,2.54805 m 1.64426,-2.46638 4.37701,0.98737 0.28172,2.84923 c -2.56148,-0.1099 -6.52666,-0.32311 -4.65873,-3.8366 m 10.41362,0 c 0.0623,0.78704 0.44285,1.90678 0.10469,2.65437 -0.53987,1.19373 -3.63984,1.13399 -4.76342,1.18223 v -3.28851 l 4.65873,-0.54809 m 5.20681,2.19234 c -0.38776,8.89625 -10.63477,12.73394 -17.53766,7.73102 -2.54506,-1.84431 -3.13589,-4.60831 -3.83767,-7.45698 2.32649,0.41354 4.49074,1.5952 6.85108,2.02353 5.3841,0.97751 9.59943,-0.24718 14.52425,-2.29757 z" fill="#000"/>
</svg>