<svg xmlns="http://www.w3.org/2000/svg" viewBox="-231.46 63.0125 81.62 70">
  <path d="m -178.28467,73.583056 c -7.1466,-4.37006 -17.56431,-4.21368 -23.73766,1.93857 -2.56904,2.56022 -5.83381,6.97974 -3.86405,10.57849 -2.59086,-1.49046 -4.92796,-3.7002 -7.0609,-5.78182 -0.76203,-0.74368 -2.05745,-1.68075 -2.36328,-2.74762 -0.18964,-0.66149 0.22323,-1.41646 0.33234,-2.06317 0.29742,-1.76272 0.12094,-3.75639 -1.24714,-5.04457 -2.8036,-2.63984 -7.63265,-0.43414 -7.95516,3.12012 -1.20155,8e-4 -2.46667,-0.10881 -3.52898,0.55919 -2.62519,1.65068 -2.97535,5.26593 -0.58394,7.28551 2.2471,1.89771 3.98681,0.17168 6.35956,0.61837 2.23214,0.42025 4.82905,3.17526 6.419,4.69589 -1.98777,-0.29358 -3.91248,-1.06437 -5.77709,-1.79742 -1.25649,-0.49397 -2.79645,-1.26808 -4.16741,-0.79171 -2.45758,0.85388 -2.04706,3.61212 -0.30831,4.95196 1.35624,1.04501 3.22298,1.61726 4.79666,2.25788 2.67582,1.08931 5.34132,2.20172 8.02375,3.27466 1.46318,0.58542 3.84319,1.10439 4.94154,2.27842 0.63424,0.67817 0.53567,1.80343 0.65083,2.66421 0.26574,1.986044 0.35455,3.909814 1.14759,5.777104 -2.63522,1.36693 -4.3639,4.01605 -6.73996,5.77229 -5.88966,4.35337 -12.65525,8.37712 -17.63343,13.80599 -2.23233,2.4344 0.0981,7.35938 3.51164,7.44187 1.70947,0.0411 3.53997,-1.87724 4.81425,-2.82886 3.14376,-2.34742 6.60688,-5.77164 10.27039,-7.18094 1.60835,3.14789 6.11019,3.84627 9.30756,3.8514 2.1719,0.004 4.29752,0.071 6.41899,-0.47436 5.7646,-1.48246 9.68051,-5.89777 11.55421,-11.40079 2.4068,2.30347 4.98307,4.43136 7.38185,6.74349 0.81939,0.78954 2.05184,1.60635 2.59842,2.61863 0.51576,0.95451 0.0183,2.16673 -0.15438,3.15494 -0.29944,1.71515 -0.17492,3.75929 1.15959,5.04566 1.83391,1.76843 5.55212,1.30819 7.10038,-0.61269 0.87395,-1.08418 1.10952,-2.44565 1.17114,-3.79107 3.75063,-0.1717 7.76604,-4.87812 4.42013,-8.27249 -1.38329,-1.4032 -3.53719,-1.49691 -5.38298,-1.30016 -1.097,0.11681 -2.14746,0.59118 -3.20949,0.0712 -3.82028,-1.87018 -6.08843,-6.35064 -9.94945,-8.15085 v -0.32096 c 3.16521,0.39991 9.72702,1.67826 10.59135,-2.56759 h 0.32095 c 0.0183,2.18214 0.49298,4.40792 1.99438,6.08424 2.69405,3.00827 7.74998,3.13954 10.30442,9.7e-4 5.13104,-6.30346 5.95491,-16.277304 5.99567,-24.058424 0.0132,-2.55881 2.00979,-7.16296 -1.9273,-7.93311 -3.30899,-0.64733 -5.46482,3.32623 -7.70152,5.04456 0,-5.97201 -1.04565,-11.5982 -2.71877,-17.30258 -0.45574,-1.55443 0.43746,-3.04729 -0.70063,-4.45343 -1.43785,-1.77666 -3.94641,-1.44127 -5.88816,-0.89402 -4.53791,1.2789 -8.56005,5.27636 -8.9866,10.13297 m 12.19611,-3.53044 c 2.34743,5.45583 2.24665,11.83295 2.24665,17.65225 -2.14427,0 -4.48785,0.13025 -6.41772,-0.99132 -2.06595,-1.20064 -2.83945,-3.47708 -2.88502,-5.74863 -0.0928,-4.63542 3.16938,-8.66569 7.05609,-10.9123 m -40.76067,20.21985 c -4.12276,-0.7353 -8.06056,-4.51291 -11.23324,-7.06116 -1.00612,-0.80809 -2.02953,-1.94091 -3.2095,-2.48537 -2.00807,-0.92656 -3.91708,1.47479 -6.05522,-0.24691 -1.74351,-1.40393 -1.57992,-4.12976 0.29569,-5.33678 1.12475,-0.72381 2.55718,-0.5955 3.83383,-0.59633 0.13935,-2.99909 3.34869,-5.79682 6.025,-3.1362 1.06064,1.05441 1.44163,2.67477 1.03391,4.09905 -0.2706,0.94532 -1.04043,1.85922 -0.44873,2.83404 2.77164,4.5662 9.75355,5.81743 9.75826,11.92966 m 3.53046,-5.1352 5.45615,-0.0545 7.7028,1.01736 -7.06091,3.8514 c 0.47502,2.43183 -2.03545,4.97119 -0.40374,7.34814 2.51688,3.666224 7.5895,0.91375 8.49041,-2.53389 0.64478,-2.46844 -1.35666,-4.2664 -2.63051,-6.09806 0.97826,-0.65929 2.02808,-1.53857 3.2095,-1.77861 1.85766,-0.3774 6.14106,0.72249 7.54297,2.00398 0.8733,0.79879 1.27385,2.22092 1.65386,3.30508 1.03602,2.95659 2.37182,6.32753 0.80879,9.307564 -2.98323,5.68787 -11.01789,6.73994 -16.74558,6.73994 -1.93114,0 -3.9265,0.16466 -5.7771,-0.49714 -4.16285,-1.48825 -6.11203,-6.62152 -5.13519,-10.736104 l 3.20949,0.96285 c -2.12943,-1.45552 -4.68721,-2.2335 -7.0609,-3.21304 -3.64483,-1.50397 -7.29192,-3.01789 -10.9123,-4.57996 -1.49806,-0.64639 -5.64721,-1.72408 -4.92273,-4.06335 0.76135,-2.45823 4.76852,-0.27124 6.20653,0.30214 4.24992,1.69456 8.52739,3.37896 12.838,4.9131 1.28387,0.45704 3.70088,1.76137 5.06191,1.2822 0.93957,-0.33089 1.0486,-1.49723 0.97202,-2.3439 -0.18261,-2.01858 -1.43682,-3.51431 -2.50347,-5.13519 m -1.60476,6.09804 h -0.64189 c -0.55573,-1.8843 -0.12094,-3.68322 0.64189,-5.45615 3.42291,1.17766 0.94739,3.26246 0,5.45615 m 50.71012,-0.32094 c 0,5.77646 -0.9561,12.243604 -3.8514,17.331304 -0.66886,-1.22892 -0.94263,-2.63628 -1.67311,-3.8514 -0.57129,-0.95033 -1.51616,-1.76618 -1.74309,-2.88855 -0.32319,-1.601224 0.31807,-5.984434 1.36212,-7.256684 1.17179,-1.42791 4.19675,-2.68797 5.90548,-3.33467 m -22.14555,0.32094 c 3.4653,2.05119 4.85372,7.88639 5.98636,11.554214 0.45349,1.46899 1.02511,3.689 -0.12196,4.99591 -0.74686,0.85084 -1.95267,0.74685 -2.97585,0.87266 -2.7085,0.33283 -8.09725,0.35305 -9.62851,-2.33812 1.86504,0.0811 3.62289,0.67945 5.45616,0.9882 0.85404,0.14411 1.69943,0.27923 2.56759,0.28951 3.2952,0.0402 3.9249,-1.8888 3.15944,-4.80816 -0.72953,-2.78264 -2.16866,-5.384584 -3.29456,-8.023754 -0.48013,-1.12494 -1.18719,-2.29737 -1.14867,-3.53046 m 3.8514,1.28381 c 2.41739,1.71964 5.10342,2.33715 8.02375,2.56759 l -1.38458,6.648494 -2.46683,2.98002 h -0.32094 l -2.99543,-8.344704 -0.85597,-3.8514 m -44.61206,2.88855 c -0.31367,3.83536 -2.44292,6.321754 -6.09805,7.381854 v 0.32096 c 4.03023,0.6069 5.80136,4.29526 6.09805,8.02374 h 0.32094 c 0.47896,-3.76988 1.87621,-7.38827 6.09805,-8.02374 v -0.32096 c -2.16625,-0.73754 -4.062,-1.71548 -5.1352,-3.851404 -0.5742,-1.14291 -0.62479,-2.43762 -1.28379,-3.53045 m 0.32094,3.2095 3.53046,4.493314 -3.53046,4.17234 h -0.32094 l -3.53046,-4.4933 3.8514,-4.172354 m 14.7637,9.307564 -0.96285,2.56759 -4.17235,-2.56759 c 1.72803,-2.35129 2.98641,-1.01614 5.1352,0 m 17.65227,-0.64191 c 2.93605,2.87539 6.18438,5.48793 9.30754,8.15887 1.51201,1.29279 3.05866,3.10103 4.81425,4.0414 2.36573,1.26712 5.46,-1.66636 7.88447,0.54241 1.42373,1.29664 0.77413,4.23237 -0.61174,5.31462 -0.99815,0.77894 -2.53165,0.82676 -3.74227,0.87875 -0.0269,1.3005 -0.10081,2.72648 -0.87555,3.83279 -1.15415,1.64872 -3.6553,2.00433 -5.13295,0.56327 -2.2611,-2.20492 0.54978,-4.75745 -0.63773,-6.96365 -0.59633,-1.10825 -1.78224,-2.00948 -2.66133,-2.88855 -1.98379,-1.98348 -4.11618,-3.79428 -6.09805,-5.7771 -2.09323,-2.09421 -3.50959,-4.69294 -2.24664,-7.70281 m -1.60476,0.96285 c 0,0.84442 0.17941,1.97865 -0.19353,2.76209 -0.71508,1.50205 -3.80582,1.85574 -5.26262,2.05216 l 0.32095,-3.8514 5.1352,-0.96285 m -11.23326,0.96285 -0.64189,3.53046 -4.4933,-1.60476 c 1.21675,-2.8924 2.45729,-2.14459 5.13519,-1.9257 m -6.73995,2.56761 c -0.39511,0.84505 -0.97918,2.47227 -1.99306,2.74058 -1.36917,0.36203 -3.42332,-2.16833 -3.52227,-3.38184 -0.0696,-0.85437 0.57358,-1.59064 1.02204,-2.24729 l 4.49329,2.88855 m 11.87516,-2.56761 -0.83094,3.84242 -3.98331,0.008 0.64189,-3.53046 4.17236,-0.32094 m -19.89891,2.5676 -0.96285,3.2095 -1.60475,-1.60476 2.5676,-1.60474 m 1.60476,0.32095 c 1.06755,1.31076 2.14013,2.53422 3.53044,3.51665 3.21538,2.27201 7.32474,3.22008 11.23326,2.84779 2.79707,-0.2664 5.54537,-1.10889 8.34471,-1.22925 -3.34719,6.72006 -12.04399,9.09927 -18.93606,7.41396 -5.76482,-1.40961 -7.96778,-7.84659 -4.17235,-12.54915 m 12.19609,1.9257 -0.64189,3.20949 -5.7771,-1.28379 1.2838,-3.53046 5.13519,1.60476 m 12.19611,-1.2838 c -0.45606,3.38473 -2.26013,3.91816 -5.45615,4.17235 v -2.88855 l 5.45615,-1.2838 m -29.20645,1.2838 c 1.72982,1.78898 3.15791,6.3041 0.64189,8.02375 l -3.8514,-5.77711 3.20951,-2.24664 m 22.78745,0.32094 v 2.88855 l -5.1352,0.32096 0.32094,-3.20951 h 4.81426 m -22.46651,8.34471 -4.17235,2.56761 c -0.90546,-1.32457 -3.44527,-3.42069 -3.42421,-5.10632 0.0141,-1.12718 2.28828,-2.81955 3.36949,-2.49026 1.61332,0.49138 3.42107,3.63283 4.22707,5.02897 z" fill="#000"/>
</svg>