<svg xmlns="http://www.w3.org/2000/svg" viewBox="-321.31 161.987 77.31 70">
  <path d="m -313.42643,161.98669 c -0.58587,1.17173 -1.38401,2.28072 -1.51599,3.63835 -0.64705,6.65524 3.44483,11.32791 7.8831,15.76619 1.26212,1.26211 3.11598,2.52026 4.14369,3.94155 0.97747,1.35183 0.50682,3.60287 0.8085,5.15432 0.66294,3.40914 1.74505,7.09812 4.14369,9.70228 h -16.67578 -4.24474 l -1.71811,0.15159 -0.70746,1.97078 v 4.85113 l 0.70746,1.97078 2.93089,0.1516 h 8.18629 l -4.24475,4.24473 v 0.3032 l 5.15434,5.15433 v 0.3032 l -6.97351,6.67031 v 0.30319 l 4.24475,4.54794 1.81917,0.80863 1.81918,-1.41501 3.63835,-3.33516 1.51598,-1.21278 1.21278,0.90958 3.33516,3.33515 h 0.30319 l 4.85113,-4.85113 v -0.30319 l -4.24473,-5.15434 4.24473,-3.03195 c 0.47757,1.81492 2.10873,3.14534 3.63836,4.14378 4.76654,3.11139 14.5725,1.77187 16.37258,-4.44699 l 2.42557,2.42558 1.31375,1.21278 -1.01056,1.51598 -2.93099,3.33516 2.0214,2.42556 2.72877,2.37493 1.51598,-0.85895 3.33516,-3.63835 h 0.30319 c 1.1003,1.90043 3.15839,3.45461 4.59857,5.15434 0.4933,0.58243 1.26524,1.63422 2.07174,1.76853 0.64976,0.10852 1.32557,-0.523 1.81917,-0.85895 1.30436,-0.88775 4.34874,-3.30756 4.14379,-5.15433 -0.0831,-0.74768 -0.9196,-1.31678 -1.41502,-1.81918 -1.05936,-1.07422 -1.96077,-2.26396 -3.03196,-3.33516 -0.41628,-0.41628 -1.51598,-1.16184 -1.51598,-1.81917 0,-0.48299 0.61185,-0.91504 0.90959,-1.21278 1.06967,-1.06968 1.96229,-2.26549 3.03196,-3.33516 v -0.30319 l -3.94155,-4.54794 c 5.96842,0 12.43104,-2.38949 12.43104,-9.39907 h -23.64929 c 1.64423,-2.84035 3.40459,-5.16373 4.14378,-8.48948 0.36808,-1.65758 -0.16827,-4.3124 0.55576,-5.76074 0.73465,-1.46943 2.9228,-2.77133 4.09315,-3.94154 2.91189,-2.91177 5.7589,-5.9531 7.52927,-9.70227 1.13758,-2.40913 1.57116,-5.03472 0.75798,-7.5799 -0.25681,-0.80377 -0.88351,-2.32451 -1.92014,-2.32451 -0.9108,0 -2.67692,2.57583 -3.33516,3.2341 l -7.2767,7.2767 c -0.71857,0.7187 -1.83616,2.54637 -2.72876,2.93091 -0.80529,0.34685 -1.5457,-0.86412 -2.02141,-1.36439 -1.52386,-1.60277 -3.31181,-3.16505 -5.25529,-4.24473 -7.03779,-3.90987 -14.7226,-3.66319 -21.22372,1.21278 -1.5054,1.12903 -3.70918,2.64723 -4.24474,4.49739 l -4.54794,-3.94154 -6.67031,-6.67031 -3.63835,-3.33516 m 0.60638,1.81918 1.31384,1.51598 -0.10107,1.81917 0.65694,3.63836 6.01338,7.57989 3.18355,3.33516 -0.1516,2.72876 c -2.48336,-1.43776 -4.45367,-4.2476 -6.36711,-6.36711 -2.16807,-2.40157 -4.17462,-4.3941 -5.10379,-7.57991 -0.53578,-1.83688 -0.91089,-5.26732 0.55585,-6.6703 m 60.63919,0 c 0.44298,1.40249 1.05664,2.73222 0.90959,4.24474 -0.43751,4.49994 -4.21866,8.76663 -7.27671,11.82464 -1.37711,1.37718 -2.97343,3.63904 -4.85113,4.24474 -0.11253,-0.61115 -0.60458,-1.52165 -0.40416,-2.12237 0.49785,-1.49364 2.93494,-3.13708 4.04251,-4.24475 2.28611,-2.28606 4.52733,-4.84176 5.7101,-7.88308 0.83257,-2.14093 -0.23528,-4.74078 1.8698,-6.06392 m -45.78259,25.46845 c 0.0875,1.10818 0.58659,2.08993 1.16224,3.03196 2.154,3.52465 6.97827,4.74168 10.00538,1.51598 0.72615,-0.77376 1.38166,-1.774 1.81917,-2.72876 0.22224,-0.48451 0.24711,-1.34256 0.70766,-1.66758 0.43114,-0.30441 1.27191,-0.15857 1.76854,-0.1516 1.593,0.0225 1.28708,0.92384 1.86982,2.12237 0.55242,1.13668 1.43442,2.19574 2.37493,3.03197 4.17349,3.70959 9.7723,-0.59669 10.61185,-5.15434 h 3.33516 c -1.24947,4.3163 -2.25274,8.05137 -5.76072,11.21825 -6.96411,6.28707 -20.72344,5.72252 -26.98444,-1.21278 -2.70318,-2.99437 -2.89637,-6.39501 -3.94155,-10.00547 h 3.03196 m 14.55341,7.68087 c -2.5893,0.87532 -1.09969,4.76138 1.51598,3.73961 2.00745,-0.78437 0.77133,-4.51277 -1.51598,-3.73961 m -34.26114,4.75016 v 6.36711 l -2.32451,-0.15159 -0.40425,-1.66758 0.40425,-4.39633 2.32451,-0.15161 m 4.54794,0 c -1.04055,1.79735 -3.25714,2.96405 -3.33516,0 h 3.33516 m 7.57989,0 -2.42557,2.12238 -1.51597,-2.12238 h 3.94154 m 7.8831,0 c -1.36199,2.35251 -2.88276,2.35251 -4.24475,0 h 4.24475 m 52.1497,0 c -0.0842,3.20296 -3.12079,5.57123 -6.06391,6.26616 -2.46529,0.58182 -5.05489,0.40416 -7.57991,0.40416 h -12.12783 l -0.30319,-1.81918 h 11.21824 l 6.36712,-0.25256 4.54794,-2.4762 1.56661,-1.97077 2.37493,-0.15161 m -68.82547,3.33516 c 0.34237,-0.59124 0.71708,-1.01328 1.21278,-1.51598 0.41156,-0.41719 0.94294,-1.16548 1.51598,-1.36438 0.64802,-0.22497 1.10148,0.36656 1.51597,0.75799 0.48697,0.45995 1.35708,1.11 1.46545,1.81918 0.14386,0.94172 -2.02857,3.21114 -2.98142,2.88036 -0.98875,-0.34322 -1.99703,-1.84556 -2.72876,-2.57717 m 10.91505,3.03195 h -0.3032 l -3.03196,-3.03195 c 0.51953,-0.89747 1.90031,-2.8085 3.03196,-2.98133 0.97078,-0.14856 3.12975,2.0105 2.98142,2.98133 -0.16731,1.09515 -1.92796,2.28155 -2.67822,3.03195 m 4.54794,-3.03195 c 0.34186,-0.59032 0.71375,-1.01692 1.21278,-1.51598 0.32491,-0.32503 0.75429,-0.91687 1.21278,-1.06119 1.02927,-0.32412 2.9856,1.17671 3.03197,2.27398 0.031,0.73463 -0.52038,1.5842 -0.96014,2.12236 -0.38876,0.47603 -1.04775,1.33831 -1.76863,1.06119 -0.90977,-0.34989 -2.0332,-2.16603 -2.72876,-2.88036 m -17.38323,-0.40416 -0.10107,0.20192 0.10107,-0.20192 m 23.44714,2.52653 0.90959,-2.72877 c 1.74307,0.13766 3.55013,0.42297 3.13292,2.42557 -0.0903,0.43478 -0.0339,1.08666 -0.45478,1.36439 -0.81591,0.53848 -2.89143,-0.63974 -3.58773,-1.06119 m 16.06939,1.21279 c -0.021,-0.7962 -0.52847,-1.92984 -0.25256,-2.67814 0.25651,-0.69613 2.57687,-1.52083 3.23389,-1.11181 0.6634,0.41295 1.22824,2.4865 0.60639,3.03196 -0.43296,0.3799 -1.23189,0.42901 -1.76854,0.55575 -0.62823,0.14857 -1.17155,0.20224 -1.81918,0.20224 m -30.62279,-2.72877 2.12238,2.42556 h -4.54794 l 2.42556,-2.42556 m 7.8831,0 1.81917,2.42556 h -4.24475 l 2.42558,-2.42556 m 16.06939,0.3032 v 3.33516 l -4.54794,-0.6064 0.45478,-2.67812 4.09316,-0.0506 m 5.76072,2.72876 -4.54794,0.60639 v -3.33515 l 3.84058,-0.1516 0.70736,2.88036 m -35.47393,-0.6064 h -3.33516 c 0.0795,-3.02376 2.22486,-1.9177 3.33516,0 m 20.31412,0.30321 3.63835,1.21278 -0.30319,3.03195 c -1.86283,-0.5882 -5.14444,-1.75702 -3.33516,-4.24473 m 20.31414,0.60638 -0.15161,2.37494 -3.48674,1.26341 -0.15161,-2.67812 3.78996,-0.96023 m -27.59084,0.3032 c -0.29109,1.0057 -2.68507,4.22624 -3.94154,3.78995 -1.3207,-0.45843 -2.74371,-2.60718 -3.33516,-3.78995 h 7.2767 m 41.53785,0.60639 -3.33516,3.53739 -3.63835,-3.84058 6.97351,0.30319 m -24.86206,0.60639 v 3.03196 l -4.85115,-0.60638 0.30321,-3.03197 4.54794,0.60639 m 5.76072,-0.30319 -0.1516,2.6278 -4.39634,0.70735 v -3.03196 l 4.54794,-0.30319 m -30.6228,0.60639 13.94702,13.94702 v 0.30319 l -3.33516,2.88036 -1.51598,-1.06119 -3.33515,-3.33515 -6.67032,-6.67031 -2.27396,-2.72876 3.18355,-3.33516 m 51.24012,0 c 0.69371,0.69371 2.6278,2.29914 2.6278,3.33516 0,1.07089 -2.25123,2.70602 -2.98163,3.43611 -2.44589,2.44619 -4.7723,5.02518 -7.22607,7.47894 -0.80105,0.80104 -1.94743,2.50379 -3.03196,2.88036 -0.91443,0.31745 -3.52859,-2.27518 -3.48675,-3.18355 0.0221,-0.48027 0.70856,-0.91081 1.01055,-1.21279 l 3.0826,-3.03196 3.94154,-3.94154 c 1.86951,-1.86951 3.79479,-4.44699 6.06392,-5.76073 m -37.2931,1.81917 c 0.45324,2.46044 -0.38224,3.1111 -2.12238,4.85114 -0.45015,0.45024 -1.11348,1.41502 -1.81917,1.41502 -2.00085,0 -0.65491,-2.33158 0,-2.931 0.61124,-0.5597 1.26654,-1.0533 1.86972,-1.61694 0.67649,-0.63217 1.28667,-1.26373 2.07183,-1.71822 m 1.51597,0 c 3.2915,1.03937 6.81343,2.26609 10.30868,2.07174 3.37456,-0.18737 6.41289,-1.16275 9.70226,-1.76853 0,7.27488 -10.65643,10.63156 -16.06938,6.87254 -1.70124,-1.18156 -2.94955,-3.14597 -3.63835,-5.05337 -0.2753,-0.76223 -0.66003,-1.51841 -0.30321,-2.12238 m 21.83011,0 4.85114,4.85114 v 0.3032 c -0.39021,0.3799 -0.90807,1.11182 -1.51598,1.11182 -0.70584,0 -1.36892,-0.96478 -1.81917,-1.41502 -1.40956,-1.40956 -2.99467,-2.93766 -1.51599,-4.85114 m -41.23464,11.82464 c 0.96789,0.9678 3.90362,3.03258 3.84049,4.54794 -0.041,0.986 -1.22273,1.66122 -2.02132,1.16215 -1.49397,-0.93353 -3.27302,-2.76211 -3.63835,-4.4973 l 1.81918,-1.21279 m 59.12321,0 1.36438,1.51599 -0.50542,1.51598 -3.58773,3.33515 h -0.30319 l -1.41501,-1.81918 1.11181,-1.51597 z" fill="#000"/>
</svg>